<?xml version="1.0" encoding="UTF-8" standalone="no"?>
<!-- Generator: Adobe Illustrator 19.1.0, SVG Export Plug-In . SVG Version: 6.00 Build 0) -->

<svg
   xmlns:dc="http://purl.org/dc/elements/1.1/"
   xmlns:cc="http://creativecommons.org/ns#"
   xmlns:rdf="http://www.w3.org/1999/02/22-rdf-syntax-ns#"
   xmlns:svg="http://www.w3.org/2000/svg"
   xmlns="http://www.w3.org/2000/svg"
   xmlns:sodipodi="http://sodipodi.sourceforge.net/DTD/sodipodi-0.dtd"
   xmlns:inkscape="http://www.inkscape.org/namespaces/inkscape"
   version="1.1"
   id="Layer_1"
   x="0px"
   y="0px"
   viewBox="0 0 250 250"
   style="enable-background:new 0 0 250 250;"
   xml:space="preserve"
   width="250"
   height="250"
   sodipodi:docname="ngx-focus-control-logo.svg"
   inkscape:version="0.92.5 (2060ec1f9f, 2020-04-08)"><metadata
   id="metadata76"><rdf:RDF><cc:Work
       rdf:about=""><dc:format>image/svg+xml</dc:format><dc:type
         rdf:resource="http://purl.org/dc/dcmitype/StillImage" /><dc:title></dc:title></cc:Work></rdf:RDF></metadata><defs
   id="defs74" /><sodipodi:namedview
   pagecolor="#ffffff"
   bordercolor="#666666"
   borderopacity="1"
   objecttolerance="10"
   gridtolerance="10"
   guidetolerance="10"
   inkscape:pageopacity="0"
   inkscape:pageshadow="2"
   inkscape:window-width="1920"
   inkscape:window-height="1116"
   id="namedview72"
   showgrid="false"
   inkscape:zoom="1.74"
   inkscape:cx="-23.3194"
   inkscape:cy="178.45378"
   inkscape:window-x="0"
   inkscape:window-y="0"
   inkscape:window-maximized="1"
   inkscape:current-layer="Layer_1" />
<style
   type="text/css"
   id="style63"> .st0{fill:#DD0031;} .st1{fill:#C3002F;} .st2{fill:#FFFFFF;}
</style>
<g
   id="g69"> <polygon
   class="st0"
   points="125,30 125,30 125,30 31.9,63.2 46.1,186.3 125,230 125,230 125,230 203.9,186.3 218.1,63.2 "
   id="polygon65" /> <polygon
   class="st1"
   points="125,30 125,52.2 125,52.1 125,153.4 125,153.4 125,230 125,230 203.9,186.3 218.1,63.2 125,30 "
   id="polygon67" /> </g>
<path
   style="fill:#ffffff;stroke-width:1.03535223"
   d="M 125,68.104323 A 58.907975,58.907975 0 0 0 66.092605,127.01172 58.907975,58.907975 0 0 0 125,185.91911 58.907975,58.907975 0 0 0 183.9074,127.01172 58.907975,58.907975 0 0 0 125,68.104323 Z m 0,10.917534 A 47.989689,47.989689 0 0 1 172.98986,127.01172 47.989689,47.989689 0 0 1 125,175.00158 47.989689,47.989689 0 0 1 77.010139,127.01172 47.989689,47.989689 0 0 1 125,79.021857 Z"
   id="path78"
   inkscape:connector-curvature="0" /><path
   id="path83"
   d="M 125,93.104321 A 33.90773,33.90773 0 0 0 91.092605,127.01172 33.90773,33.90773 0 0 0 125,160.91911 33.90773,33.90773 0 0 0 158.9074,127.01172 33.90773,33.90773 0 0 0 125,93.104321 Z m 0,6.284188 A 27.623109,27.623109 0 0 1 152.62321,127.01172 27.623109,27.623109 0 0 1 125,154.63493 27.623109,27.623109 0 0 1 97.376793,127.01172 27.623109,27.623109 0 0 1 125,99.388509 Z"
   style="fill:#ffffff;stroke-width:0.595954"
   inkscape:connector-curvature="0" /><rect
   style="fill:#ffffff;stroke-width:1.07147408"
   id="rect85"
   width="5.4393482"
   height="47.126434"
   x="121.99297"
   y="59.770115"
   rx="2"
   ry="2" /><rect
   ry="2"
   rx="2"
   y="149.784"
   x="121.78978"
   height="47.126434"
   width="5.4393482"
   id="rect87"
   style="fill:#ffffff;stroke-width:1.07147408" /><rect
   style="fill:#ffffff;stroke-width:1.07147408"
   id="rect91"
   width="5.4393482"
   height="47.126434"
   x="124.90942"
   y="-104.15137"
   rx="2"
   ry="2"
   transform="rotate(90)" /><rect
   transform="rotate(90)"
   ry="2"
   rx="2"
   y="-193.21312"
   x="124.90942"
   height="47.126434"
   width="5.4393482"
   id="rect93"
   style="fill:#ffffff;stroke-width:1.07147408" /><circle
   style="fill:#ffffff"
   id="path95"
   cx="124.99999"
   cy="127.29885"
   r="5.7471266" /></svg>